<?xml version="1.0" encoding="UTF-8" standalone="no"?>
<!-- Generator: Adobe Illustrator 14.0.0, SVG Export Plug-In . SVG Version: 6.00 Build 43363)  -->

<svg
   xmlns:dc="http://purl.org/dc/elements/1.1/"
   xmlns:cc="http://creativecommons.org/ns#"
   xmlns:rdf="http://www.w3.org/1999/02/22-rdf-syntax-ns#"
   xmlns:svg="http://www.w3.org/2000/svg"
   xmlns="http://www.w3.org/2000/svg"
   xmlns:sodipodi="http://sodipodi.sourceforge.net/DTD/sodipodi-0.dtd"
   xmlns:inkscape="http://www.inkscape.org/namespaces/inkscape"
   version="1.1"
   id="Main"
   x="0px"
   y="0px"
   width="400"
   height="600"
   viewBox="0 0 503.25284 753.50657"
   enable-background="new 0 0 559.93 796.9"
   xml:space="preserve"
   inkscape:version="0.48.3.1 r9886"
   sodipodi:docname="Keep_Calm_and_Carry_On_Poster.svg"><metadata
   id="metadata107"><rdf:RDF><cc:Work
       rdf:about=""><dc:format>image/svg+xml</dc:format><dc:type
         rdf:resource="http://purl.org/dc/dcmitype/StillImage" /><dc:title /></cc:Work></rdf:RDF></metadata><defs
   id="defs105">
	
	
	
	
	
</defs><sodipodi:namedview
   pagecolor="#ffffff"
   bordercolor="#666666"
   borderopacity="1"
   objecttolerance="10"
   gridtolerance="10"
   guidetolerance="10"
   inkscape:pageopacity="0"
   inkscape:pageshadow="2"
   inkscape:window-width="1600"
   inkscape:window-height="870"
   id="namedview103"
   showgrid="false"
   inkscape:zoom="0.5646013"
   inkscape:cx="-384.55531"
   inkscape:cy="301.41777"
   inkscape:window-x="39"
   inkscape:window-y="1"
   inkscape:window-maximized="0"
   inkscape:current-layer="g63"
   fit-margin-top="0"
   fit-margin-left="0"
   fit-margin-right="0"
   fit-margin-bottom="0" />


<rect
   y="-1.7418995e-05"
   x="0"
   width="503.25284"
   height="753.50659"
   id="rect3"
   style="fill:#006659;fill-opacity:1" /><g
   id="g5"
   transform="matrix(0.80084746,0,0,0.7973667,33.263311,4.2910012)">
	<path
   d="m 363.708,108 -14.125,-3.75 5.5,12.625 -8.125,-6.125 -4.5,21.5 10.25,-6.125 c -8,25 -24.625,15.875 -24.625,15.875 -10.75,-3.25 -9.875,-19.625 -1.125,-19.625 8.75,0 6.875,12.875 6.875,12.875 5.5,-1.125 12.063,-14.187 4.25,-22 -7.125,-7.125 -15,-2 -15,-2 6.375,-15.125 -1.75,-23.25 -1.75,-23.25 -12,8.375 -8.875,22.125 -8.875,22.125 0,0 -3.212,-4.294 -9.207,-3.931 -5.043,0.306 -8.471,6.056 -8.443,10.931 0.036,6.769 6.9,10.625 6.9,10.625 0,0 -0.75,-3.375 1,-6.375 2.476,-4.243 11.036,-2.748 10.375,6.625 -0.688,9.75 -11.25,10.75 -15.625,10.75 -4.502,0 -9.188,-3.312 -11.125,-6 -3.359,-4.661 -4,-10.625 -4,-10.625 l 8.75,4.75 -0.5,-20.875 -8.25,6.125 4.25,-15.125 h -4.208 -7.667 -4.208 l 4.25,15.125 -8.25,-6.125 -0.5,20.875 8.75,-4.75 c 0,0 -0.64,5.964 -4,10.625 -1.938,2.688 -6.623,6 -11.125,6 -4.375,0 -14.938,-1 -15.625,-10.75 -0.661,-9.373 7.9,-10.868 10.375,-6.625 1.75,3 1,6.375 1,6.375 0,0 6.865,-3.856 6.901,-10.625 0.026,-4.875 -3.401,-10.625 -8.444,-10.931 -5.995,-0.363 -9.207,3.931 -9.207,3.931 0,0 3.125,-13.75 -8.875,-22.125 0,0 -8.125,8.125 -1.75,23.25 0,0 -7.875,-5.125 -15,2 -7.813,7.813 -1.25,20.875 4.25,22 0,0 -1.875,-12.875 6.875,-12.875 8.75,0 9.625,16.375 -1.125,19.625 0,0 -16.625,9.125 -24.625,-15.875 l 10.25,6.125 -4.5,-21.5 -8.125,6.125 5.5,-12.625 -14.125,3.75 c 0,0 3.5,8.375 2.875,10.625 -0.625,2.25 -1.569,5.168 -0.944,7.543 0.625,2.375 2.694,4.207 4.069,5.457 1.375,1.25 3.25,9.875 3.625,11.375 0.375,1.5 2.125,8.625 -0.625,19.625 l 11.375,10.75 c 0,0 21.125,-10.5 64.5,-10.625 h 0.583 c 43.375,0.125 64.5,10.625 64.5,10.625 l 11.375,-10.75 c -2.75,-11 -1,-18.125 -0.625,-19.625 0.375,-1.5 2.25,-10.125 3.625,-11.375 1.375,-1.25 3.445,-3.082 4.07,-5.457 0.625,-2.375 -0.32,-5.293 -0.945,-7.543 -0.625,-2.25 2.875,-10.625 2.875,-10.625 z m -163.675,20.153 -2.655,-2.486 0.985,-3.487 2.655,2.486 -0.985,3.487 z m 10.454,36.511 -4.099,-3.838 1.521,-5.385 4.1,3.838 -1.522,5.385 z M 220.25,152.5 c 0,-1.243 1.007,-2.25 2.25,-2.25 1.243,0 2.25,1.007 2.25,2.25 0,1.243 -1.007,2.25 -2.25,2.25 -1.243,0 -2.25,-1.007 -2.25,-2.25 z M 224,164 c -1.243,0 -2.25,-1.007 -2.25,-2.25 0,-1.243 1.007,-2.25 2.25,-2.25 1.243,0 2.25,1.007 2.25,2.25 0,1.243 -1.007,2.25 -2.25,2.25 z m 20.249,-5.5 c -5.275,0.82 -10.036,-1.631 -10.633,-5.474 -0.598,-3.843 3.194,-7.623 8.471,-8.442 5.274,-0.82 10.034,1.631 10.632,5.475 0.597,3.842 -3.195,7.622 -8.47,8.441 z m 14.501,-12.75 c 0,-1.243 1.007,-2.25 2.25,-2.25 1.243,0 2.25,1.007 2.25,2.25 0,1.243 -1.007,2.25 -2.25,2.25 -1.243,0 -2.25,-1.007 -2.25,-2.25 z m 3.5,11.94 c -1.243,0 -2.25,-1.007 -2.25,-2.25 0,-1.243 1.007,-2.25 2.25,-2.25 1.243,0 2.25,1.007 2.25,2.25 0,1.243 -1.007,2.25 -2.25,2.25 z m 16.292,-42.093 c 0.867,0 1.569,0.703 1.569,1.57 0,0.867 -0.702,1.57 -1.569,1.57 -0.867,0 -1.569,-0.703 -1.569,-1.57 0,-0.867 0.701,-1.57 1.569,-1.57 z m 0.043,40.748 -4.406,-7.155 4.314,-7.175 4.409,7.154 -4.317,7.176 z m 16.248,1.345 c -1.242,0 -2.25,-1.007 -2.25,-2.25 0,-1.243 1.008,-2.25 2.25,-2.25 1.243,0 2.25,1.007 2.25,2.25 0,1.243 -1.007,2.25 -2.25,2.25 z m 1.25,-9.69 c -1.242,0 -2.25,-1.007 -2.25,-2.25 0,-1.243 1.008,-2.25 2.25,-2.25 1.243,0 2.25,1.007 2.25,2.25 0,1.243 -1.007,2.25 -2.25,2.25 z m 27.385,5.027 c -0.597,3.843 -5.357,6.294 -10.633,5.474 -5.275,-0.819 -9.067,-4.6 -8.47,-8.441 0.598,-3.844 5.357,-6.295 10.632,-5.475 5.276,0.819 9.068,4.599 8.471,8.442 z M 333.083,164 c -1.242,0 -2.25,-1.007 -2.25,-2.25 0,-1.243 1.008,-2.25 2.25,-2.25 1.243,0 2.25,1.007 2.25,2.25 0,1.243 -1.007,2.25 -2.25,2.25 z m 1.5,-9.25 c -1.242,0 -2.25,-1.007 -2.25,-2.25 0,-1.243 1.008,-2.25 2.25,-2.25 1.243,0 2.25,1.007 2.25,2.25 0,1.243 -1.007,2.25 -2.25,2.25 z m 12.014,9.914 -1.521,-5.386 4.1,-3.838 1.521,5.385 -4.1,3.839 z m 10.453,-36.511 -0.984,-3.487 2.655,-2.486 0.985,3.487 -2.656,2.486 z"
   id="path7"
   inkscape:connector-curvature="0"
   style="fill:#ffffff" />
	<ellipse
   cx="278.54501"
   cy="176.875"
   rx="60.877998"
   ry="10.375"
   id="ellipse9"
   d="m 339.42301,176.875 c 0,5.72995 -27.25601,10.375 -60.878,10.375 -33.62199,0 -60.87799,-4.64505 -60.87799,-10.375 0,-5.72995 27.256,-10.375 60.87799,-10.375 33.62199,0 60.878,4.64505 60.878,10.375 z"
   sodipodi:cx="278.54501"
   sodipodi:cy="176.875"
   sodipodi:rx="60.877998"
   sodipodi:ry="10.375"
   style="fill:#ffffff" />
	<g
   id="g11">
		<path
   d="m 212.661,103.163 -2.654,-2.992 c 29.671,-26.319 55.127,-28.263 56.197,-28.333 l 1.284,-0.084 0.609,1.133 c 4.97,9.254 6.021,20.462 6.063,20.935 l -3.984,0.357 c -0.01,-0.103 -0.937,-9.905 -4.99,-18.201 -5.457,0.764 -27.634,5.105 -52.525,27.185 l 0,0 z"
   id="path13"
   inkscape:connector-curvature="0"
   style="fill:#ffffff" />
	</g>
	<circle
   cx="262.5"
   cy="66"
   r="4.3330002"
   id="circle15"
   d="m 266.833,66 c 0,2.39305 -1.93995,4.333 -4.333,4.333 -2.39305,0 -4.333,-1.93995 -4.333,-4.333 0,-2.39305 1.93995,-4.333 4.333,-4.333 2.39305,0 4.333,1.93995 4.333,4.333 z"
   sodipodi:cx="262.5"
   sodipodi:cy="66"
   sodipodi:rx="4.3330002"
   sodipodi:ry="4.3330002"
   style="fill:#ffffff" />
	<circle
   cx="251.334"
   cy="68.834"
   r="4.0549998"
   id="circle17"
   d="m 255.389,68.834 c 0,2.239514 -1.81549,4.054999 -4.055,4.054999 -2.23951,0 -4.055,-1.815485 -4.055,-4.054999 0,-2.239515 1.81549,-4.055 4.055,-4.055 2.23951,0 4.055,1.815485 4.055,4.055 z"
   sodipodi:cx="251.334"
   sodipodi:cy="68.834"
   sodipodi:rx="4.0549998"
   sodipodi:ry="4.0549998"
   style="fill:#ffffff" />
	<circle
   cx="241.00101"
   cy="72.889999"
   r="3.7780001"
   id="circle19"
   d="m 244.77901,72.889999 c 0,2.086532 -1.69147,3.778001 -3.778,3.778001 -2.08653,0 -3.778,-1.691469 -3.778,-3.778001 0,-2.086531 1.69147,-3.778 3.778,-3.778 2.08653,0 3.778,1.691469 3.778,3.778 z"
   sodipodi:cx="241.00101"
   sodipodi:cy="72.889999"
   sodipodi:rx="3.7780001"
   sodipodi:ry="3.7780001"
   style="fill:#ffffff" />
	<circle
   cx="231.83299"
   cy="77.500999"
   r="3.5"
   id="circle21"
   d="m 235.33299,77.500999 c 0,1.932997 -1.567,3.5 -3.5,3.5 -1.93299,0 -3.5,-1.567003 -3.5,-3.5 0,-1.932996 1.56701,-3.5 3.5,-3.5 1.933,0 3.5,1.567004 3.5,3.5 z"
   sodipodi:cx="231.83299"
   sodipodi:cy="77.500999"
   sodipodi:rx="3.5"
   sodipodi:ry="3.5"
   style="fill:#ffffff" />
	<circle
   cx="222.834"
   cy="83.333"
   r="3.2219999"
   id="circle23"
   d="m 226.056,83.333 c 0,1.779462 -1.44254,3.222 -3.222,3.222 -1.77946,0 -3.222,-1.442538 -3.222,-3.222 0,-1.779461 1.44254,-3.222 3.222,-3.222 1.77946,0 3.222,1.442539 3.222,3.222 z"
   sodipodi:cx="222.834"
   sodipodi:cy="83.333"
   sodipodi:rx="3.2219999"
   sodipodi:ry="3.2219999"
   style="fill:#ffffff" />
	<circle
   cx="214.722"
   cy="89.5"
   r="2.9449999"
   id="circle25"
   d="m 217.667,89.5 c 0,1.626479 -1.31852,2.945 -2.945,2.945 -1.62648,0 -2.945,-1.318521 -2.945,-2.945 0,-1.626479 1.31852,-2.945 2.945,-2.945 1.62648,0 2.945,1.318521 2.945,2.945 z"
   sodipodi:cx="214.722"
   sodipodi:cy="89.5"
   sodipodi:rx="2.9449999"
   sodipodi:ry="2.9449999"
   style="fill:#ffffff" />
	<circle
   cx="208.444"
   cy="95.834"
   r="2.6670001"
   id="circle27"
   d="m 211.111,95.834 c 0,1.472943 -1.19406,2.667 -2.667,2.667 -1.47294,0 -2.667,-1.194057 -2.667,-2.667 0,-1.472944 1.19406,-2.667 2.667,-2.667 1.47294,0 2.667,1.194056 2.667,2.667 z"
   sodipodi:cx="208.444"
   sodipodi:cy="95.834"
   sodipodi:rx="2.6670001"
   sodipodi:ry="2.6670001"
   style="fill:#ffffff" />
	<g
   id="g29">
		<path
   d="m 344.689,103.163 2.654,-2.992 C 317.673,73.852 292.216,71.908 291.146,71.838 l -1.283,-0.084 -0.609,1.133 c -4.969,9.254 -6.02,20.462 -6.062,20.935 l 3.984,0.357 c 0.01,-0.103 0.936,-9.905 4.988,-18.201 5.457,0.764 27.635,5.105 52.525,27.185 l 0,0 z"
   id="path31"
   inkscape:connector-curvature="0"
   style="fill:#ffffff" />
	</g>
	<circle
   cx="294.85101"
   cy="66"
   r="4.3330002"
   id="circle33"
   d="m 299.18401,66 c 0,2.39305 -1.93995,4.333 -4.333,4.333 -2.39305,0 -4.333,-1.93995 -4.333,-4.333 0,-2.39305 1.93995,-4.333 4.333,-4.333 2.39305,0 4.333,1.93995 4.333,4.333 z"
   sodipodi:cx="294.85101"
   sodipodi:cy="66"
   sodipodi:rx="4.3330002"
   sodipodi:ry="4.3330002"
   style="fill:#ffffff" />
	<circle
   cx="306.017"
   cy="68.834"
   r="4.0560002"
   id="circle35"
   d="m 310.073,68.834 c 0,2.240067 -1.81593,4.056 -4.056,4.056 -2.24007,0 -4.056,-1.815933 -4.056,-4.056 0,-2.240067 1.81593,-4.056001 4.056,-4.056001 2.24007,0 4.056,1.815934 4.056,4.056001 z"
   sodipodi:cx="306.017"
   sodipodi:cy="68.834"
   sodipodi:rx="4.0560002"
   sodipodi:ry="4.0560002"
   style="fill:#ffffff" />
	<circle
   cx="316.35001"
   cy="72.889999"
   r="3.777"
   id="circle37"
   d="m 320.12701,72.889999 c 0,2.08598 -1.69102,3.777 -3.777,3.777 -2.08598,0 -3.777,-1.69102 -3.777,-3.777 0,-2.085979 1.69102,-3.777 3.777,-3.777 2.08598,0 3.777,1.691021 3.777,3.777 z"
   sodipodi:cx="316.35001"
   sodipodi:cy="72.889999"
   sodipodi:rx="3.777"
   sodipodi:ry="3.777"
   style="fill:#ffffff" />
	<circle
   cx="278.53799"
   cy="75.160004"
   r="3.777"
   id="circle39"
   d="m 282.31499,75.160004 c 0,2.085979 -1.69102,3.777 -3.777,3.777 -2.08598,0 -3.777,-1.691021 -3.777,-3.777 0,-2.08598 1.69102,-3.777 3.777,-3.777 2.08598,0 3.777,1.69102 3.777,3.777 z"
   sodipodi:cx="278.53799"
   sodipodi:cy="75.160004"
   sodipodi:rx="3.777"
   sodipodi:ry="3.777"
   style="fill:#ffffff" />
	<circle
   cx="325.51801"
   cy="77.500999"
   r="3.5"
   id="circle41"
   d="m 329.01801,77.500999 c 0,1.932997 -1.56701,3.5 -3.5,3.5 -1.933,0 -3.5,-1.567003 -3.5,-3.5 0,-1.932996 1.567,-3.5 3.5,-3.5 1.93299,0 3.5,1.567004 3.5,3.5 z"
   sodipodi:cx="325.51801"
   sodipodi:cy="77.500999"
   sodipodi:rx="3.5"
   sodipodi:ry="3.5"
   style="fill:#ffffff" />
	<circle
   cx="334.517"
   cy="83.333"
   r="3.2219999"
   id="circle43"
   d="m 337.739,83.333 c 0,1.779462 -1.44254,3.222 -3.222,3.222 -1.77946,0 -3.222,-1.442538 -3.222,-3.222 0,-1.779461 1.44254,-3.222 3.222,-3.222 1.77946,0 3.222,1.442539 3.222,3.222 z"
   sodipodi:cx="334.517"
   sodipodi:cy="83.333"
   sodipodi:rx="3.2219999"
   sodipodi:ry="3.2219999"
   style="fill:#ffffff" />
	<circle
   cx="278.539"
   cy="84.358002"
   r="3.2219999"
   id="circle45"
   d="m 281.761,84.358002 c 0,1.779461 -1.44254,3.222 -3.222,3.222 -1.77946,0 -3.222,-1.442539 -3.222,-3.222 0,-1.779462 1.44254,-3.222 3.222,-3.222 1.77946,0 3.222,1.442538 3.222,3.222 z"
   sodipodi:cx="278.539"
   sodipodi:cy="84.358002"
   sodipodi:rx="3.2219999"
   sodipodi:ry="3.2219999"
   style="fill:#ffffff" />
	<circle
   cx="342.62799"
   cy="89.5"
   r="2.944"
   id="circle47"
   d="m 345.57199,89.5 c 0,1.625926 -1.31807,2.944 -2.944,2.944 -1.62593,0 -2.944,-1.318074 -2.944,-2.944 0,-1.625926 1.31807,-2.944 2.944,-2.944 1.62593,0 2.944,1.318074 2.944,2.944 z"
   sodipodi:cx="342.62799"
   sodipodi:cy="89.5"
   sodipodi:rx="2.944"
   sodipodi:ry="2.944"
   style="fill:#ffffff" />
	<circle
   cx="348.90701"
   cy="95.834"
   r="2.6670001"
   id="circle49"
   d="m 351.57401,95.834 c 0,1.472943 -1.19405,2.667 -2.667,2.667 -1.47294,0 -2.667,-1.194057 -2.667,-2.667 0,-1.472944 1.19406,-2.667 2.667,-2.667 1.47295,0 2.667,1.194056 2.667,2.667 z"
   sodipodi:cx="348.90701"
   sodipodi:cy="95.834"
   sodipodi:rx="2.6670001"
   sodipodi:ry="2.6670001"
   style="fill:#ffffff" />
	<circle
   cx="278.539"
   cy="92.445"
   r="2.6670001"
   id="circle51"
   d="m 281.206,92.445 c 0,1.472943 -1.19406,2.667 -2.667,2.667 -1.47294,0 -2.667,-1.194057 -2.667,-2.667 0,-1.472944 1.19406,-2.667 2.667,-2.667 1.47294,0 2.667,1.194056 2.667,2.667 z"
   sodipodi:cx="278.539"
   sodipodi:cy="92.445"
   sodipodi:rx="2.6670001"
   sodipodi:ry="2.6670001"
   style="fill:#ffffff" />
	<path
   d="M 280.69,50.537 V 45 l 7.027,3.076 V 35.667 l -7.121,4.167 4.379,-9.917 H 272.1 l 4.379,9.917 -7.122,-4.167 V 48.076 L 276.385,45 v 5.537 c -4.161,0.975 -7.263,4.702 -7.263,9.16 0,5.2 4.215,9.416 9.416,9.416 5.2,0 9.416,-4.216 9.416,-9.416 0,-4.459 -3.102,-8.185 -7.264,-9.16 z m -3.152,2.963 v 5 l -3.777,-2 3.777,-3 z m -4.379,10.092 c 0,0 5.406,-2.092 10.341,1.508 0,0 -8.059,3.993 -10.341,-1.508 z m 7.602,-5.092 v -5 l 3.739,2.5 -3.739,2.5 z"
   id="path53"
   inkscape:connector-curvature="0"
   style="fill:#ffffff" />
</g><g
   id="g63"
   transform="matrix(0.96946458,0,0,0.93132447,-18.53657,-7.7058238)">
		
		
		
		
	<g
   transform="matrix(1.5081677,0,0,1.5699309,-182.12519,-102.48729)"
   style="font-size:40px;font-style:normal;font-variant:normal;font-weight:normal;font-stretch:normal;line-height:125%;letter-spacing:0px;word-spacing:0px;fill:#ffffff;fill-opacity:1;stroke:none;font-family:Adobe Heiti Std;-inkscape-font-specification:Adobe Heiti Std"
   id="flowRoot3030"><g
     id="g3202"
     transform="translate(1.4882297,0)"><g
       id="g3263"><g
         id="g3161"><path
           inkscape:connector-curvature="0"
           id="path3069"
           style="text-align:center;text-anchor:middle;fill:#ffffff;font-family:Keep Calm;-inkscape-font-specification:Keep Calm"
           d="m 187.43294,214.87579 -15.04028,0 0,7.43896 14.84009,0 0,5.04029 -14.84009,0 0,14.16015 -6.08032,0 0,-31.96045 21.1206,0 z" /><path
           inkscape:connector-curvature="0"
           id="path3071"
           style="text-align:center;text-anchor:middle;fill:#ffffff;font-family:Keep Calm;-inkscape-font-specification:Keep Calm"
           d="m 215.5494,241.51519 -6.84082,0 -2.27906,-7.28027 c -0.24009,-0.79996 -0.53346,-1.5332 -0.88012,-2.19971 -0.3467,-0.66649 -0.78005,-1.23981 -1.30005,-1.71997 -0.52004,-0.48013 -1.13344,-0.85346 -1.84021,-1.11999 -0.7068,-0.26651 -1.54034,-0.39977 -2.50061,-0.39978 l -2.31934,0 0,12.71972 -6.1206,0 0,-31.96045 12.64038,-0.0391 c 1.35984,3e-5 2.62652,0.23319 3.80005,0.69946 1.17348,0.46634 2.18686,1.11291 3.04016,1.9397 0.85324,0.82685 1.51995,1.80036 2.00012,2.92053 0.48012,1.12023 0.72019,2.3334 0.72021,3.63953 -2e-5,0.93345 -0.14671,1.84023 -0.44006,2.72034 -0.2934,0.88014 -0.70681,1.69354 -1.24023,2.44018 -0.53348,0.74668 -1.16682,1.40668 -1.90003,1.97998 -0.73326,0.57334 -1.54014,1.00649 -2.42065,1.29944 1.01397,0.37355 1.841,0.91371 2.48108,1.62048 0.64003,0.7068 1.14642,1.55336 1.51916,2.53968 0.37351,0.90658 0.72019,1.82658 1.04004,2.76001 0.3198,0.93343 0.71978,2.10694 1.19995,3.5205 0.29376,0.87973 0.56719,1.6329 0.82031,2.25953 0.25307,0.62662 0.52651,1.18001 0.82032,1.66015 z m -8.12012,-22.35962 c -2e-5,-0.74704 -0.13999,-1.42718 -0.41992,-2.0404 -0.27997,-0.61318 -0.66001,-1.14642 -1.14014,-1.59973 -0.48016,-0.45326 -1.04697,-0.80666 -1.70044,-1.06018 -0.6535,-0.25348 -1.35337,-0.38023 -2.09961,-0.38025 l -4.47998,0 0,9.95971 4.47998,0 c 0.74624,2e-5 1.44611,-0.1133 2.09961,-0.33996 0.65347,-0.22663 1.22028,-0.55317 1.70044,-0.97962 0.48013,-0.42641 0.86017,-0.93971 1.14014,-1.53991 0.27993,-0.60016 0.4199,-1.27338 0.41992,-2.01966 z" /><path
           inkscape:connector-curvature="0"
           id="path3073"
           style="text-align:center;text-anchor:middle;fill:#ffffff;font-family:Keep Calm;-inkscape-font-specification:Keep Calm"
           d="m 240.47982,241.51519 -21.12061,0 0,-31.96045 21.12061,0 0,5.12085 -15.04029,0 0,7.63916 14.84009,0 0,5 -14.84009,0 0,8.80005 15.04029,0 z" /><path
           inkscape:connector-curvature="0"
           id="path3075"
           style="text-align:center;text-anchor:middle;fill:#ffffff;font-family:Keep Calm;-inkscape-font-specification:Keep Calm"
           d="m 266.41732,241.51519 -21.12061,0 0,-31.96045 21.12061,0 0,5.12085 -15.04029,0 0,7.63916 14.84009,0 0,5 -14.84009,0 0,8.80005 15.04029,0 z" /><path
           inkscape:connector-curvature="0"
           id="path3077"
           style="text-align:center;text-anchor:middle;fill:#ffffff;font-family:Keep Calm;-inkscape-font-specification:Keep Calm"
           d="m 299.67415,225.51544 c -3e-5,2.21355 -0.37336,4.28691 -1.11999,6.22009 -0.7467,1.93319 -1.78653,3.62651 -3.11951,5.07996 -1.33303,1.45345 -2.92625,2.6001 -4.77966,3.43994 -1.85346,0.83984 -3.87352,1.25976 -6.06018,1.25976 l -13.3606,0 0,-31.99951 13.3606,0 c 2.18666,3e-5 4.20672,0.41995 6.06018,1.25977 1.85341,0.83987 3.44663,1.98652 4.77966,3.43994 1.33298,1.45347 2.37281,3.15351 3.11951,5.1001 0.74663,1.94663 1.11996,4.01328 1.11999,6.19995 z m -6.2793,-0.15992 c -2e-5,-1.35984 -0.27346,-2.69977 -0.82031,-4.01977 -0.5469,-1.31997 -1.29356,-2.49347 -2.23999,-3.52051 -0.94647,-1.02699 -2.06646,-1.85381 -3.35998,-2.48047 -1.29356,-0.6266 -2.67356,-0.93991 -4.14002,-0.93994 l -5.40039,0 0,21.84082 5.40039,0 c 1.46646,1e-5 2.84646,-0.29337 4.14002,-0.88013 1.29352,-0.58674 2.41351,-1.3802 3.35998,-2.38037 0.94643,-1.00015 1.69309,-2.16022 2.23999,-3.48022 0.54685,-1.31997 0.82029,-2.69977 0.82031,-4.13941 z" /><path
           inkscape:connector-curvature="0"
           id="path3079"
           style="text-align:center;text-anchor:middle;fill:#ffffff;font-family:Keep Calm;-inkscape-font-specification:Keep Calm"
           d="m 337.19735,225.51544 c -4e-5,2.2933 -0.44661,4.45334 -1.33973,6.4801 -0.89318,2.02678 -2.11307,3.78683 -3.65966,5.28015 -1.54666,1.49333 -3.34659,2.67334 -5.39978,3.54004 -2.05325,0.8667 -4.23993,1.30005 -6.56006,1.30005 -2.32017,0 -4.51357,-0.43335 -6.5802,-1.30005 -2.06666,-0.8667 -3.8733,-2.04671 -5.41993,-3.54004 -1.54663,-1.49332 -2.76672,-3.24666 -3.66027,-5.26001 -0.89356,-2.01333 -1.34034,-4.18008 -1.34034,-6.50024 0,-2.32013 0.44678,-4.49359 1.34034,-6.52039 0.89355,-2.02675 2.11364,-3.7868 3.66027,-5.28015 1.54663,-1.4933 3.35327,-2.6666 5.41993,-3.5199 2.06663,-0.85324 4.26003,-1.27987 6.5802,-1.27991 2.32013,4e-5 4.50681,0.42667 6.56006,1.27991 2.05319,0.8533 3.85312,2.03332 5.39978,3.54004 1.54659,1.50678 2.76648,3.26683 3.65966,5.28015 0.89312,2.01337 1.33969,4.18012 1.33973,6.50025 z m -6.23902,0 c -3e-5,-1.46646 -0.28018,-2.84646 -0.84045,-4.14002 -0.56033,-1.29351 -1.32714,-2.42694 -2.30042,-3.40027 -0.97333,-0.97328 -2.11326,-1.74659 -3.4198,-2.31994 -1.30658,-0.5733 -2.69309,-0.85996 -4.15954,-0.85999 -1.49335,3e-5 -2.89329,0.28669 -4.19983,0.85999 -1.30658,0.57335 -2.44671,1.34666 -3.42041,2.31994 -0.97373,0.97333 -1.74053,2.10676 -2.30042,3.40027 -0.5599,1.29356 -0.83985,2.67356 -0.83984,4.14002 -10e-6,1.43963 0.27994,2.81292 0.83984,4.11987 0.55989,1.30698 1.32669,2.44711 2.30042,3.42041 0.9737,0.97331 2.11383,1.74663 3.42041,2.31995 1.30654,0.57333 2.70648,0.85999 4.19983,0.85998 1.46645,1e-5 2.85296,-0.28665 4.15954,-0.85998 1.30654,-0.57332 2.44647,-1.34664 3.4198,-2.31995 0.97328,-0.9733 1.74009,-2.11343 2.30042,-3.42041 0.56027,-1.30695 0.84042,-2.68024 0.84045,-4.11987 z" /><path
           inkscape:connector-curvature="0"
           id="path3081"
           style="text-align:center;text-anchor:middle;fill:#ffffff;font-family:Keep Calm;-inkscape-font-specification:Keep Calm"
           d="m 373.93563,241.51519 -6.07911,0 0,-21.35986 -10.08056,16.99951 -9.68018,-17.15942 0,21.51977 -6.08032,0 0,-31.99951 7.00073,0 8.8794,15.87891 9.281,-15.87891 6.75904,0 z" /></g><g
         id="g3170"><path
           inkscape:connector-curvature="0"
           id="path3083"
           style="text-align:center;text-anchor:middle;fill:#ffffff;font-family:Keep Calm;-inkscape-font-specification:Keep Calm"
           d="m 414.43196,241.51519 -6.19995,0 0,-31.96045 6.19995,0 z" /><path
           inkscape:connector-curvature="0"
           id="path3085"
           style="text-align:center;text-anchor:middle;fill:#ffffff;font-family:Keep Calm;-inkscape-font-specification:Keep Calm"
           d="m 441.78059,233.11553 c -2e-5,1.19956 -0.26003,2.33928 -0.78002,3.41919 -0.52005,1.07992 -1.24677,2.03329 -2.18018,2.86011 -0.93345,0.82683 -2.04022,1.48702 -3.32031,1.98059 -1.28013,0.49357 -2.6933,0.74036 -4.23951,0.74036 -1.38673,0 -2.63347,-0.0802 -3.74023,-0.24048 -1.10678,-0.16032 -2.14682,-0.41382 -3.12012,-0.7605 -0.97331,-0.34668 -1.90674,-0.79325 -2.80029,-1.33972 -0.89356,-0.54647 -1.82007,-1.20625 -2.77954,-1.97937 l 4.39941,-4.44092 c 1.28011,1.0669 2.53356,1.82028 3.76038,2.26013 1.22679,0.43987 2.56,0.6598 3.99963,0.65979 0.58674,1e-5 1.14012,-0.0867 1.66016,-0.26001 0.52,-0.17333 0.97329,-0.40648 1.35986,-0.69946 0.38654,-0.29296 0.69314,-0.63964 0.9198,-1.04004 0.22663,-0.40038 0.33995,-0.84024 0.33997,-1.31958 -2e-5,-0.50699 -0.0932,-0.96048 -0.27954,-1.36047 -0.18638,-0.39997 -0.51963,-0.78653 -0.99976,-1.15967 -0.48016,-0.37312 -1.14686,-0.75316 -2.00012,-1.14014 -0.85329,-0.38695 -1.94683,-0.8205 -3.28064,-1.30066 -1.1727,-0.42641 -2.2992,-0.91286 -3.37952,-1.45935 -1.08033,-0.54645 -2.02698,-1.20644 -2.83996,-1.97998 -0.813,-0.7735 -1.46627,-1.68028 -1.95984,-2.72033 -0.49358,-1.04002 -0.74036,-2.26683 -0.74036,-3.68042 0,-1.35984 0.27344,-2.6131 0.82031,-3.75977 0.54688,-1.14662 1.29354,-2.12664 2.23999,-2.94006 0.94645,-0.81337 2.05302,-1.44671 3.31971,-1.90003 1.26667,-0.45325 2.63325,-0.6799 4.09973,-0.67993 2.4536,3e-5 4.52045,0.32006 6.20056,0.96008 1.68007,0.64009 3.1732,1.57372 4.47937,2.80091 l -4.32007,4.35913 c -0.79998,-0.77309 -1.68662,-1.36635 -2.65991,-1.77979 -0.97332,-0.41338 -2.13991,-0.62009 -3.49976,-0.62011 -0.6128,2e-5 -1.17921,0.0934 -1.69922,0.28015 -0.52003,0.18679 -0.9668,0.43358 -1.34033,0.74035 -0.37354,0.30683 -0.67363,0.66674 -0.90027,1.07972 -0.22665,0.41303 -0.33997,0.84617 -0.33996,1.29943 -10e-6,0.50703 0.1066,0.96723 0.31982,1.38062 0.21321,0.41343 0.57332,0.81342 1.08032,1.19995 0.50699,0.38658 1.18041,0.77313 2.02027,1.15967 0.83983,0.38657 1.88638,0.8065 3.13965,1.25976 1.59991,0.56073 2.9732,1.16762 4.11987,1.82068 1.14663,0.6531 2.08006,1.38633 2.80029,2.19971 0.72019,0.81341 1.25364,1.72019 1.60034,2.72034 0.34666,1.00017 0.52,2.12688 0.52002,3.38012 z" /></g></g><g
       id="g3254"><path
         d="m 225.56218,295.1493 -6.19995,0 0,-31.96045 6.19995,0 z"
         style="text-align:center;text-anchor:middle;fill:#ffffff;font-family:Keep Calm;-inkscape-font-specification:Keep Calm"
         id="path3087"
         inkscape:connector-curvature="0" /><path
         d="m 258.15007,295.1493 -6.08032,0 -14.4397,-22.44018 0,22.44018 -6.08032,0 0,-31.99951 6.96045,0 13.55957,20.87891 0,-20.87891 6.08032,0 z"
         style="text-align:center;text-anchor:middle;fill:#ffffff;font-family:Keep Calm;-inkscape-font-specification:Keep Calm"
         id="path3089"
         inkscape:connector-curvature="0" /><path
         d="m 312.43216,273.90907 c -2e-5,1.5202 -0.28689,2.94028 -0.86059,4.26025 -0.57376,1.32 -1.35379,2.46665 -2.34009,3.43994 -0.98635,0.97332 -2.14622,1.73341 -3.47962,2.28028 -1.33343,0.54688 -2.7468,0.82032 -4.24011,0.82031 l -5.28076,0 0,10.43945 -6.19995,0 0,-31.96045 11.48071,0 c 1.49331,4e-5 2.90668,0.27347 4.24011,0.82032 1.3334,0.5469 2.49327,1.30028 3.47962,2.26013 0.9863,0.95991 1.76633,2.09312 2.34009,3.39966 0.5737,1.30658 0.86057,2.71995 0.86059,4.24011 z m -6.16089,-0.0794 c -2e-5,-0.8268 -0.15322,-1.60032 -0.45959,-2.32055 -0.30642,-0.72019 -0.72634,-1.34682 -1.25977,-1.87989 -0.53346,-0.53301 -1.16029,-0.95965 -1.88049,-1.2799 -0.72023,-0.32021 -1.49334,-0.48032 -2.31934,-0.48035 l -4.12109,0 0,12.08008 4.12109,0 c 0.826,1e-5 1.59911,-0.16661 2.31934,-0.49988 0.7202,-0.33324 1.34703,-0.77981 1.88049,-1.33972 0.53343,-0.55988 0.95335,-1.20665 1.25977,-1.94031 0.30637,-0.73362 0.45957,-1.51345 0.45959,-2.33948 z"
         style="text-align:center;text-anchor:middle;fill:#ffffff;font-family:Keep Calm;-inkscape-font-specification:Keep Calm"
         id="path3091"
         inkscape:connector-curvature="0" /><path
         d="m 337.55789,295.1493 -21.1206,0 0,-31.96045 21.1206,0 0,5.12085 -15.04028,0 0,7.63916 14.84009,0 0,5 -14.84009,0 0,8.80005 15.04028,0 z"
         style="text-align:center;text-anchor:middle;fill:#ffffff;font-family:Keep Calm;-inkscape-font-specification:Keep Calm"
         id="path3093"
         inkscape:connector-curvature="0" /><path
         d="m 366.4556,295.1493 -6.84082,0 -2.27905,-7.28027 c -0.24009,-0.79996 -0.53347,-1.5332 -0.88013,-2.19971 -0.3467,-0.66649 -0.78005,-1.23981 -1.30005,-1.71997 -0.52004,-0.48013 -1.13344,-0.85346 -1.84021,-1.11999 -0.7068,-0.26651 -1.54034,-0.39977 -2.50061,-0.39978 l -2.31934,0 0,12.71972 -6.1206,0 0,-31.96045 12.64038,-0.0391 c 1.35984,3e-5 2.62653,0.23319 3.80005,0.69946 1.17348,0.46634 2.18687,1.11291 3.04016,1.9397 0.85325,0.82685 1.51995,1.80036 2.00012,2.92053 0.48012,1.12023 0.72019,2.3334 0.72022,3.63953 -3e-5,0.93345 -0.14672,1.84023 -0.44007,2.72034 -0.2934,0.88014 -0.70681,1.69354 -1.24023,2.44018 -0.53347,0.74668 -1.16681,1.40668 -1.90003,1.97998 -0.73325,0.57334 -1.54014,1.00649 -2.42065,1.29944 1.01398,0.37355 1.841,0.91371 2.48108,1.62048 0.64003,0.7068 1.14642,1.55336 1.51916,2.53968 0.37351,0.90658 0.72019,1.82658 1.04004,2.76001 0.3198,0.93343 0.71979,2.10694 1.19995,3.5205 0.29376,0.87973 0.5672,1.6329 0.82032,2.25953 0.25306,0.62662 0.5265,1.18001 0.82031,1.66015 z m -8.12012,-22.35962 c -2e-5,-0.74704 -0.13999,-1.42718 -0.41992,-2.0404 -0.27997,-0.61318 -0.66001,-1.14642 -1.14014,-1.59973 -0.48016,-0.45326 -1.04697,-0.80666 -1.70044,-1.06018 -0.6535,-0.25348 -1.35336,-0.38023 -2.09961,-0.38025 l -4.47998,0 0,9.95971 4.47998,0 c 0.74625,2e-5 1.44611,-0.1133 2.09961,-0.33996 0.65347,-0.22663 1.22028,-0.55317 1.70044,-0.97962 0.48013,-0.42641 0.86017,-0.93971 1.14014,-1.53991 0.27993,-0.60016 0.4199,-1.27338 0.41992,-2.01966 z"
         style="text-align:center;text-anchor:middle;fill:#ffffff;font-family:Keep Calm;-inkscape-font-specification:Keep Calm"
         id="path3095"
         inkscape:connector-curvature="0" /><path
         d="m 376.46536,295.1493 -6.19995,0 0,-31.96045 6.19995,0 z"
         style="text-align:center;text-anchor:middle;fill:#ffffff;font-family:Keep Calm;-inkscape-font-specification:Keep Calm"
         id="path3097"
         inkscape:connector-curvature="0" /><path
         d="m 404.09354,295.1493 -21.64063,0 0,-31.96045 6.3208,0 0,25.9607 15.31983,0 z"
         style="text-align:center;text-anchor:middle;fill:#ffffff;font-family:Keep Calm;-inkscape-font-specification:Keep Calm"
         id="path3099"
         inkscape:connector-curvature="0" /></g></g><g
     id="g3174"
     transform="translate(-1.6736803,0)"><g
       id="g3222"
       transform="translate(0,-3.3442255e-6)"><g
         id="g3153"><path
           inkscape:connector-curvature="0"
           id="path3101"
           style="text-align:center;text-anchor:middle;fill:#ffffff;font-family:Keep Calm;-inkscape-font-specification:Keep Calm"
           d="m 211.04047,372.75885 c -3e-5,2.21355 -0.37336,4.28691 -1.11999,6.22009 -0.74669,1.93319 -1.78653,3.62651 -3.11951,5.07996 -1.33303,1.45345 -2.92625,2.6001 -4.77966,3.43994 -1.85346,0.83984 -3.87351,1.25976 -6.06018,1.25976 l -13.3606,0 0,-31.99951 13.3606,0 c 2.18667,3e-5 4.20672,0.41995 6.06018,1.25977 1.85341,0.83987 3.44663,1.98652 4.77966,3.43994 1.33298,1.45347 2.37282,3.15351 3.11951,5.1001 0.74663,1.94663 1.11996,4.01328 1.11999,6.19995 z m -6.27929,-0.15992 c -3e-5,-1.35984 -0.27347,-2.69977 -0.82032,-4.01977 -0.54689,-1.31997 -1.29356,-2.49347 -2.23999,-3.52051 -0.94647,-1.02699 -2.06646,-1.85381 -3.35998,-2.48047 -1.29356,-0.6266 -2.67356,-0.93991 -4.14002,-0.93994 l -5.40039,0 0,21.84082 5.40039,0 c 1.46646,10e-6 2.84646,-0.29337 4.14002,-0.88013 1.29352,-0.58674 2.41351,-1.3802 3.35998,-2.38037 0.94643,-1.00015 1.6931,-2.16022 2.23999,-3.48022 0.54685,-1.31997 0.82029,-2.69977 0.82032,-4.13941 z" /><path
           inkscape:connector-curvature="0"
           id="path3103"
           style="text-align:center;text-anchor:middle;fill:#ffffff;font-family:Keep Calm;-inkscape-font-specification:Keep Calm"
           d="m 236.92426,388.7586 -21.1206,0 0,-31.96045 21.1206,0 0,5.12085 -15.04028,0 0,7.63916 14.84009,0 0,5 -14.84009,0 0,8.80005 15.04028,0 z" /><path
           inkscape:connector-curvature="0"
           id="path3105"
           style="text-align:center;text-anchor:middle;fill:#ffffff;font-family:Keep Calm;-inkscape-font-specification:Keep Calm"
           d="m 262.86176,362.1192 -15.04028,0 0,7.43896 14.84009,0 0,5.04029 -14.84009,0 0,14.16015 -6.08032,0 0,-31.96045 21.1206,0 z" /><path
           inkscape:connector-curvature="0"
           id="path3107"
           style="text-align:center;text-anchor:middle;fill:#ffffff;font-family:Keep Calm;-inkscape-font-specification:Keep Calm"
           d="m 288.01801,388.7586 -21.1206,0 0,-31.96045 21.1206,0 0,5.12085 -15.04028,0 0,7.63916 14.84009,0 0,5 -14.84009,0 0,8.80005 15.04028,0 z" /><path
           inkscape:connector-curvature="0"
           id="path3109"
           style="text-align:center;text-anchor:middle;fill:#ffffff;font-family:Keep Calm;-inkscape-font-specification:Keep Calm"
           d="m 319.43525,388.7586 -6.08032,0 -14.4397,-22.44018 0,22.44018 -6.08032,0 0,-31.99951 6.96045,0 13.55957,20.87891 0,-20.87891 6.08032,0 z" /><path
           inkscape:connector-curvature="0"
           id="path3111"
           style="text-align:center;text-anchor:middle;fill:#ffffff;font-family:Keep Calm;-inkscape-font-specification:Keep Calm"
           d="m 353.85297,372.75885 c -3e-5,2.21355 -0.37336,4.28691 -1.11999,6.22009 -0.74669,1.93319 -1.78653,3.62651 -3.11951,5.07996 -1.33303,1.45345 -2.92625,2.6001 -4.77966,3.43994 -1.85346,0.83984 -3.87351,1.25976 -6.06018,1.25976 l -13.3606,0 0,-31.99951 13.3606,0 c 2.18667,3e-5 4.20672,0.41995 6.06018,1.25977 1.85341,0.83987 3.44663,1.98652 4.77966,3.43994 1.33298,1.45347 2.37282,3.15351 3.11951,5.1001 0.74663,1.94663 1.11996,4.01328 1.11999,6.19995 z m -6.27929,-0.15992 c -3e-5,-1.35984 -0.27347,-2.69977 -0.82032,-4.01977 -0.54689,-1.31997 -1.29356,-2.49347 -2.23999,-3.52051 -0.94647,-1.02699 -2.06646,-1.85381 -3.35998,-2.48047 -1.29356,-0.6266 -2.67356,-0.93991 -4.14002,-0.93994 l -5.40039,0 0,21.84082 5.40039,0 c 1.46646,10e-6 2.84646,-0.29337 4.14002,-0.88013 1.29352,-0.58674 2.41351,-1.3802 3.35998,-2.38037 0.94643,-1.00015 1.6931,-2.16022 2.23999,-3.48022 0.54685,-1.31997 0.82029,-2.69977 0.82032,-4.13941 z" /></g><g
         id="g3149"><path
           inkscape:connector-curvature="0"
           id="path3113"
           style="text-align:center;text-anchor:middle;fill:#ffffff;font-family:Keep Calm;-inkscape-font-specification:Keep Calm"
           d="m 397.98751,388.7586 -6.19995,0 0,-31.96045 6.19995,0 z" /><path
           inkscape:connector-curvature="0"
           id="path3115"
           style="text-align:center;text-anchor:middle;fill:#ffffff;font-family:Keep Calm;-inkscape-font-specification:Keep Calm"
           d="m 425.93551,362.31817 -8.84033,0 0,26.44043 -6.2793,0 0,-26.44043 -8.84033,0 0,-5.52002 23.95996,0 z" /></g></g><g
       id="g3234"
       transform="translate(0,0.91108007)"><path
         d="m 245.3999,415.23867 -10.39917,31.99951 -5.44067,0 -5.88013,-19.75952 -5.91919,19.75952 -5.44067,0 -10.39917,-31.99951 6.55884,0 6.76025,20.67993 5.83984,-20.67993 5.12085,0 5.83985,20.71899 6.8396,-20.71899 z"
         style="text-align:center;text-anchor:middle;fill:#ffffff;font-family:Keep Calm;-inkscape-font-specification:Keep Calm"
         id="path3117"
         inkscape:connector-curvature="0" /><path
         d="m 255.0166,447.23818 -6.19995,0 0,-31.96045 6.19995,0 z"
         style="text-align:center;text-anchor:middle;fill:#ffffff;font-family:Keep Calm;-inkscape-font-specification:Keep Calm"
         id="path3119"
         inkscape:connector-curvature="0" /><path
         d="m 282.9646,420.79775 -8.84033,0 0,26.44043 -6.2793,0 0,-26.44043 -8.84033,0 0,-5.52002 23.95996,0 z"
         style="text-align:center;text-anchor:middle;fill:#ffffff;font-family:Keep Calm;-inkscape-font-specification:Keep Calm"
         id="path3121"
         inkscape:connector-curvature="0" /><path
         d="m 311.94165,447.23818 -6.19995,0 0,-14.16015 -12.6001,0 0,14.16015 -6.19995,0 0,-31.96045 6.19995,0 0,12.68067 12.6001,0 0,-12.68067 6.19995,0 z"
         style="text-align:center;text-anchor:middle;fill:#ffffff;font-family:Keep Calm;-inkscape-font-specification:Keep Calm"
         id="path3123"
         inkscape:connector-curvature="0" /><path
         d="m 362.81567,447.23818 -6.79931,0 -2.96021,-6.40014 -15.52002,0 -3.00049,6.40014 -6.79931,0 15.11963,-31.99951 4.84008,0 z m -12.1997,-11.56006 -5.31983,-11.51977 -5.40039,11.51977 z"
         style="text-align:center;text-anchor:middle;fill:#ffffff;font-family:Keep Calm;-inkscape-font-specification:Keep Calm"
         id="path3125"
         inkscape:connector-curvature="0" /><path
         d="m 387.64478,447.23818 -21.64063,0 0,-31.96045 6.3208,0 0,25.9607 15.31983,0 z"
         style="text-align:center;text-anchor:middle;fill:#ffffff;font-family:Keep Calm;-inkscape-font-specification:Keep Calm"
         id="path3127"
         inkscape:connector-curvature="0" /><path
         d="m 412.87915,447.23818 -21.64062,0 0,-31.96045 6.3208,0 0,25.9607 15.31982,0 z"
         style="text-align:center;text-anchor:middle;fill:#ffffff;font-family:Keep Calm;-inkscape-font-specification:Keep Calm"
         id="path3129"
         inkscape:connector-curvature="0" /></g><g
       id="g3243"
       transform="translate(0,-1.4876249e-6)"><path
         d="m 197.07715,476.18006 -13.04077,18.88062 0,13.12012 -6.2793,0 0,-13.20069 -12.35962,-18.80005 7.19971,0 8.32031,13.43994 8.6792,-13.43994 z"
         style="text-align:center;text-anchor:middle;fill:#ffffff;font-family:Keep Calm;-inkscape-font-specification:Keep Calm"
         id="path3131"
         inkscape:connector-curvature="0" /><path
         d="m 233.25635,492.14076 c -4e-5,2.2933 -0.44661,4.45334 -1.33972,6.4801 -0.89319,2.02678 -2.11307,3.78683 -3.65967,5.28015 -1.54666,1.49333 -3.34659,2.67334 -5.39978,3.54004 -2.05325,0.8667 -4.23993,1.30005 -6.56006,1.30005 -2.32017,0 -4.51357,-0.43335 -6.5802,-1.30005 -2.06666,-0.8667 -3.8733,-2.04671 -5.41992,-3.54004 -1.54664,-1.49332 -2.76673,-3.24666 -3.66028,-5.26001 -0.89356,-2.01333 -1.34034,-4.18008 -1.34033,-6.50024 -1e-5,-2.32013 0.44677,-4.49359 1.34033,-6.52039 0.89355,-2.02675 2.11364,-3.7868 3.66028,-5.28015 1.54662,-1.4933 3.35326,-2.6666 5.41992,-3.5199 2.06663,-0.85324 4.26003,-1.27987 6.5802,-1.27991 2.32013,4e-5 4.50681,0.42667 6.56006,1.27991 2.05319,0.8533 3.85312,2.03332 5.39978,3.54004 1.5466,1.50678 2.76648,3.26683 3.65967,5.28015 0.89311,2.01337 1.33968,4.18012 1.33972,6.50025 z m -6.23902,0 c -3e-5,-1.46646 -0.28018,-2.84646 -0.84045,-4.14002 -0.56033,-1.29351 -1.32714,-2.42694 -2.30042,-3.40027 -0.97333,-0.97328 -2.11326,-1.74659 -3.41979,-2.31994 -1.30659,-0.5733 -2.6931,-0.85996 -4.15955,-0.85999 -1.49335,3e-5 -2.89329,0.28669 -4.19983,0.85999 -1.30657,0.57335 -2.44671,1.34666 -3.42041,2.31994 -0.97372,0.97333 -1.74053,2.10676 -2.30042,3.40027 -0.5599,1.29356 -0.83985,2.67356 -0.83984,4.14002 -1e-5,1.43963 0.27994,2.81292 0.83984,4.11987 0.55989,1.30698 1.3267,2.44711 2.30042,3.42041 0.9737,0.97331 2.11384,1.74663 3.42041,2.31995 1.30654,0.57333 2.70648,0.85999 4.19983,0.85998 1.46645,10e-6 2.85296,-0.28665 4.15955,-0.85998 1.30653,-0.57332 2.44646,-1.34664 3.41979,-2.31995 0.97328,-0.9733 1.74009,-2.11343 2.30042,-3.42041 0.56027,-1.30695 0.84042,-2.68024 0.84045,-4.11987 z"
         style="text-align:center;text-anchor:middle;fill:#ffffff;font-family:Keep Calm;-inkscape-font-specification:Keep Calm"
         id="path3133"
         inkscape:connector-curvature="0" /><path
         d="m 266.11523,476.141 0,17.35962 c -3e-5,2.13299 -0.32005,4.11948 -0.96008,5.95947 -0.64008,1.84002 -1.5668,3.44666 -2.78015,4.81995 -1.21341,1.37329 -2.69351,2.45341 -4.44031,3.24036 -1.74685,0.78694 -3.74005,1.18041 -5.97961,1.18042 -2.1867,-1e-5 -4.15997,-0.38676 -5.9198,-1.16028 -1.75986,-0.77352 -3.2599,-1.8335 -4.50012,-3.17993 -1.24024,-1.34644 -2.19361,-2.93314 -2.86011,-4.76014 -0.66651,-1.82697 -0.99976,-3.79352 -0.99976,-5.89965 l 0,-17.55982 6.19995,0 0,17.6001 c 0,1.22641 0.17333,2.37957 0.52002,3.45947 0.34667,1.07993 0.85326,2.01987 1.51978,2.81983 0.66649,0.79997 1.49982,1.43331 2.5,1.90002 1.00015,0.46672 2.14028,0.70008 3.42041,0.70007 1.35984,10e-6 2.53965,-0.21992 3.53943,-0.65979 0.99973,-0.43985 1.82635,-1.05325 2.47986,-1.84021 0.65346,-0.78693 1.14682,-1.71365 1.4801,-2.78015 0.33323,-1.06647 0.49985,-2.23977 0.49988,-3.5199 l 0,-17.67944 z"
         style="text-align:center;text-anchor:middle;fill:#ffffff;font-family:Keep Calm;-inkscape-font-specification:Keep Calm"
         id="path3135"
         inkscape:connector-curvature="0" /><path
         d="m 295.3584,508.14051 -6.84082,0 -2.27905,-7.28027 c -0.24009,-0.79996 -0.53347,-1.5332 -0.88013,-2.19971 -0.3467,-0.66649 -0.78005,-1.23981 -1.30005,-1.71997 -0.52004,-0.48013 -1.13344,-0.85346 -1.84021,-1.11999 -0.7068,-0.26651 -1.54034,-0.39977 -2.50061,-0.39978 l -2.31934,0 0,12.71972 -6.1206,0 0,-31.96045 12.64038,-0.0391 c 1.35984,3e-5 2.62653,0.23319 3.80005,0.69946 1.17348,0.46634 2.18687,1.11291 3.04016,1.9397 0.85325,0.82685 1.51995,1.80036 2.00012,2.92053 0.48012,1.12023 0.72019,2.3334 0.72022,3.63953 -3e-5,0.93345 -0.14672,1.84023 -0.44007,2.72034 -0.2934,0.88014 -0.70681,1.69354 -1.24023,2.44018 -0.53347,0.74668 -1.16681,1.40668 -1.90003,1.97998 -0.73325,0.57334 -1.54014,1.00649 -2.42065,1.29944 1.01398,0.37355 1.841,0.91371 2.48108,1.62048 0.64003,0.7068 1.14642,1.55336 1.51916,2.53968 0.37351,0.90658 0.72019,1.82658 1.04004,2.76001 0.3198,0.93343 0.71979,2.10694 1.19995,3.5205 0.29376,0.87973 0.5672,1.6329 0.82032,2.25953 0.25306,0.62662 0.5265,1.18001 0.82031,1.66015 z m -8.12012,-22.35962 c -2e-5,-0.74704 -0.13999,-1.42718 -0.41992,-2.0404 -0.27997,-0.61318 -0.66001,-1.14642 -1.14014,-1.59973 -0.48016,-0.45326 -1.04697,-0.80666 -1.70044,-1.06018 -0.6535,-0.25348 -1.35336,-0.38023 -2.09961,-0.38025 l -4.47998,0 0,9.95971 4.47998,0 c 0.74625,2e-5 1.44611,-0.1133 2.09961,-0.33996 0.65347,-0.22663 1.22028,-0.55317 1.70044,-0.97962 0.48013,-0.42641 0.86017,-0.93971 1.14014,-1.53991 0.27993,-0.60016 0.4199,-1.27338 0.41992,-2.01966 z"
         style="text-align:center;text-anchor:middle;fill:#ffffff;font-family:Keep Calm;-inkscape-font-specification:Keep Calm"
         id="path3137"
         inkscape:connector-curvature="0" /><path
         d="m 343.6665,508.14051 -6.0791,0 0,-21.35986 -10.08056,16.99951 -9.68018,-17.15942 0,21.51977 -6.08032,0 0,-31.99951 7.00073,0 8.87939,15.87891 9.28101,-15.87891 6.75903,0 z"
         style="text-align:center;text-anchor:middle;fill:#ffffff;font-family:Keep Calm;-inkscape-font-specification:Keep Calm"
         id="path3139"
         inkscape:connector-curvature="0" /><path
         d="m 355.83691,508.14051 -6.19995,0 0,-31.96045 6.19995,0 z"
         style="text-align:center;text-anchor:middle;fill:#ffffff;font-family:Keep Calm;-inkscape-font-specification:Keep Calm"
         id="path3141"
         inkscape:connector-curvature="0" /><path
         d="m 391.26538,502.26039 c -0.90661,1.11979 -1.89334,2.08638 -2.9602,2.89978 -1.06693,0.81339 -2.18041,1.48681 -3.34046,2.02026 -1.1601,0.53345 -2.34682,0.92692 -3.56018,1.18042 -1.2134,0.2535 -2.41986,0.38025 -3.61938,0.38025 -2.37307,0 -4.59963,-0.42684 -6.67969,-1.28052 -2.08009,-0.85368 -3.89344,-2.02718 -5.44006,-3.52051 -1.54664,-1.49332 -2.77345,-3.25316 -3.68042,-5.27954 -0.90699,-2.02635 -1.36048,-4.21304 -1.36048,-6.56006 0,-2.29327 0.44678,-4.44659 1.34033,-6.45996 0.89355,-2.01332 2.12036,-3.76665 3.68042,-5.26001 1.56005,-1.49329 3.38012,-2.67331 5.46021,-3.54004 2.08006,-0.86666 4.30662,-1.30001 6.67969,-1.30005 2.74656,4e-5 5.23984,0.56014 7.47985,1.6803 2.23997,1.12023 4.15993,2.61335 5.75989,4.47937 l -4.20044,4.28101 c -1.19957,-1.62677 -2.546,-2.79356 -4.0393,-3.50037 -1.49335,-0.70676 -3.16002,-1.06015 -5,-1.06018 -1.5202,3e-5 -2.947,0.27998 -4.2804,0.83985 -1.33343,0.55992 -2.50001,1.32652 -3.49976,2.2998 -0.99976,0.97333 -1.7863,2.10675 -2.35961,3.40027 -0.57334,1.29356 -0.86,2.67356 -0.85999,4.14001 -10e-6,1.49334 0.28665,2.88678 0.85999,4.1803 0.57331,1.29355 1.35985,2.43348 2.35961,3.4198 0.99975,0.98634 2.16633,1.75965 3.49976,2.31995 1.3334,0.56031 2.7602,0.84046 4.2804,0.84045 1.43959,10e-6 2.79945,-0.26672 4.07959,-0.80017 1.28008,-0.53344 2.42673,-1.24002 3.43994,-2.11975 l 0,-3.08106 -6.56006,0 0,-5.27954 12.52075,0 z"
         style="text-align:center;text-anchor:middle;fill:#ffffff;font-family:Keep Calm;-inkscape-font-specification:Keep Calm"
         id="path3143"
         inkscape:connector-curvature="0" /><path
         d="m 421.04321,508.14051 -6.19995,0 0,-14.16015 -12.6001,0 0,14.16015 -6.19995,0 0,-31.96045 6.19995,0 0,12.68067 12.6001,0 0,-12.68067 6.19995,0 z"
         style="text-align:center;text-anchor:middle;fill:#ffffff;font-family:Keep Calm;-inkscape-font-specification:Keep Calm"
         id="path3145"
         inkscape:connector-curvature="0" /><path
         d="m 449.01929,481.70008 -8.84033,0 0,26.44043 -6.2793,0 0,-26.44043 -8.84033,0 0,-5.52002 23.95996,0 z"
         style="text-align:center;text-anchor:middle;fill:#ffffff;font-family:Keep Calm;-inkscape-font-specification:Keep Calm"
         id="path3147"
         inkscape:connector-curvature="0" /></g></g></g></g>
</svg>
